<svg id="Layer_1" data-name="Layer 1" xmlns="http://www.w3.org/2000/svg" viewBox="0 0 200 200"><path d="M158.55,109.17,153.86,104,150,92l7.29-.78,1.3-8.33L150,81.56l-5.21,3.13L133,59.43l-82,.78L40.05,83.65l-5.47-.78L25,83.13l1.3,7.55L34.58,92V93.8l-7,6.25-4.42,42.19,5.72,9.9.53,9.12,15.1,2.6,2.6-13.8,89.33,2.6,3.91,9.64,13.8.52v-9.9l5.73-6.51ZM51,88.86l9.9-22.66h62.5l11.46,21.87Z" style="fill:#fff"/><path d="M128.34,109.69s16.93-1,19,.26c0,0,4.17,11.2-1,15.37h-24C122.09,125.32,120.53,112,128.34,109.69Z" style="fill:#ffe600"/><path d="M58,109.17s-16.92-1-19,.26c0,0-4.17,11.2,1,15.37H64C64.27,124.8,65.84,111.51,58,109.17Z" style="fill:#ffe600"/><path d="M163.76,122.71a73.5,73.5,0,0,0-3.13-18,29.48,29.48,0,0,0-6-9.37h.78c1.31,0,6-.52,6-8.6,0-6.51-4.94-7-6.51-7h-4.68a9.41,9.41,0,0,0-4.95,1c-1.56-5-3.13-9.37-4.17-12.5l-1-2.86c-1.56-4.17-4.43-9.9-12.5-10.68C124.17,54.48,108,54,92.66,54h-1.3c-15.37,0-31.51.52-35.16.78-8.33.78-11.2,6.51-12.5,10.68l-1,2.86c-1,3.13-2.61,7.55-4.17,12.5a9.43,9.43,0,0,0-5-1H28.85c-1.56,0-6.51.52-6.51,7,0,8.08,4.69,8.6,6,8.6h.79c-2.87,3.38-4.95,6.51-6,9.63A64.88,64.88,0,0,0,20,123v17.19q0,10.16,5.47,13.28v5.21a8.68,8.68,0,0,0,8.59,8.6h6.77a8.68,8.68,0,0,0,8.6-8.6v-3.9h85.16v3.9a8.68,8.68,0,0,0,8.59,8.6H150a8.68,8.68,0,0,0,8.59-8.6v-5.21q5.47-3.12,5.47-13.28V130C163.76,126.62,164,124,163.76,122.71ZM138,148H46a3.45,3.45,0,0,0-3.38,3.39v7.29a1.78,1.78,0,0,1-1.83,1.82H34.06a1.78,1.78,0,0,1-1.82-1.82V151.1A3.13,3.13,0,0,0,29.9,148c-1-.26-3.13-1-3.13-8.07V122.71a57.93,57.93,0,0,1,2.87-15.88c2.08-5.21,7.55-10.68,9.89-12.77a3.86,3.86,0,0,0,1-3.64,2.66,2.66,0,0,0-1.3-1.56,3.85,3.85,0,0,0,2.35-.53.91.91,0,0,0,.52-.26l.26-.26a6.89,6.89,0,0,0,1.3-1.56c2.08-6.51,4.17-12.5,5.47-15.89l1-2.86c1.3-3.65,2.86-5.73,6.77-6.25,2.87-.26,18.23-.78,34.38-.78h1.3c16.15,0,31.51.52,34.38.78,4.16.52,5.73,2.6,6.77,6.25l1,2.86c1.3,3.65,3.39,9.38,5.47,15.89.26.78.52,1.3,1.3,1.56l.26.26c.26.26.26.26.52.26a7.39,7.39,0,0,0,2.35.53,3.82,3.82,0,0,0-1.3,1.56,3.2,3.2,0,0,0,1,3.64c2.34,2.09,8.07,7.56,9.89,12.77a67,67,0,0,1,2.87,15.88v16.93c0,7-2.09,7.55-3.13,8.07a3.66,3.66,0,0,0-2.34,3.13v7.55a1.78,1.78,0,0,1-1.82,1.82h-6.78a1.78,1.78,0,0,1-1.82-1.82V151.1A3.23,3.23,0,0,0,138,148ZM29.12,86.77v-.26h4.16c1,0,1.3,0,1.56.26l.27.26a3.56,3.56,0,0,0,1.82,1.57H29.12ZM148.91,87a.91.91,0,0,0,.26-.52h5.47v.26c0,1,0,1.56-.26,1.83h-7.81A5.38,5.38,0,0,0,148.91,87Z" style="fill:#233a74"/><path d="M62.45,128.18H42.14a8,8,0,0,1-8.08-8.33c0-1.57.26-3.13.26-4.69l.26-1.82a8.74,8.74,0,0,1,8.6-7.82H53.6c4.16,0,9.63,2.09,12,7.56l.26.78c1.82,4.42,3.9,9.11,1.56,12.24A6.28,6.28,0,0,1,62.45,128.18ZM43.18,111.25c-1.56,0-2.35,1.57-2.61,2.61l-.26,1.82a23.85,23.85,0,0,0-.26,4.17c0,1.82,1.05,2.34,2.09,2.34H62.45c0-1.56-1.56-4.69-2.08-6.25l-.26-.78c-1.57-3.65-5.47-3.65-6.25-3.65H43.18Z" style="fill:#003478"/><path d="M135.11,89.38l-.26-1L131.73,79c-1-2.87-2.09-6.25-3.13-9.64-1.3-3.64-3.65-5.21-7.29-5.21l-29.43-.52-29.43.52c-3.65,0-6,1.57-7.29,5.21C53.86,72.45,53.07,75.83,52,79s-1.82,6.25-3.12,9.37l-.26,1a2.28,2.28,0,0,0,.26,1.82,1.85,1.85,0,0,0,1.56.78H133a1.85,1.85,0,0,0,1.56-.78A1.72,1.72,0,0,0,135.11,89.38Zm-4.69-1.57H53.6c.78-2.6,1.82-5.2,2.34-7.81l3.12-9.37c.79-2.09,1.31-2.61,3.39-2.61l29.43-.52,29.43.78c2.08,0,2.6.52,3.38,2.61q1.57,4.68,3.13,9.37h0C128.6,82.61,129.38,85.21,130.42,87.81Z" style="fill:#233a74"/><path d="M144.49,128.18H124.17a5.63,5.63,0,0,1-5-2.34c-2.08-3.13-.26-7.82,1.57-12.24l.26-.78a12.69,12.69,0,0,1,12-7.56h10.42a8.73,8.73,0,0,1,8.59,7.82l.26,1.82a33.22,33.22,0,0,1,.26,4.95A8,8,0,0,1,144.49,128.18Zm-20.32-6h20.32c1,0,2.08-.52,2.08-2.34,0-1.31-.26-2.61-.26-4.17l-.26-1.82a2.6,2.6,0,0,0-2.6-2.61H133c-.78,0-4.69.26-6.25,3.65l-.26.78C125.74,117.5,124.17,120.63,124.17,122.19Z" style="fill:#003478"/><circle cx="147.79" cy="65.41" r="30.33" style="fill:#ffe600"/><path d="M147.79,32.75A32.21,32.21,0,1,0,180,65,32.21,32.21,0,0,0,147.79,32.75Zm0,59.28A27.07,27.07,0,1,1,174.86,65,27.07,27.07,0,0,1,147.79,92Z" style="fill:#003478"/><path d="M168.25,66.16l-11-5,3.29-9.33-9.67,4.62-4.66-13.33-3,14.09-17.47-.43,13.19,9.57L131.32,74l12.23-1.23.72,12.61,6.47-12.61,12.85,7.28-6.19-11Zm-18.8,2.24-2.66,5.09-.29-4.24-6.8.77,4-4.23-7.9-5.58,9.85.19L147,55.07l2,5.76,5.14-2.19-1.05,4.09,5.71,2.61-6.23,1.77,2.52,4.48Z" style="fill:#003478"/></svg>