<svg id="Layer_1" data-name="Layer 1" xmlns="http://www.w3.org/2000/svg" viewBox="0 0 200 200"><circle cx="40.75" cy="71.64" r="28.96" style="fill:#ffe600"/><path d="M47.09,70.63a21.18,21.18,0,0,0-5.43-2.47v-6.5A2.6,2.6,0,0,1,44,63a6.08,6.08,0,0,1,.51,2.22H49c-.07-2.73-1-4.7-3-5.92a8.51,8.51,0,0,0-4.34-1.37v-2.3H40v2.27a11.78,11.78,0,0,0-2.64.43A6.45,6.45,0,0,0,34.66,60a6.52,6.52,0,0,0-1.45,2.23,7.65,7.65,0,0,0-.52,2.88A6.43,6.43,0,0,0,34,69.21a8.82,8.82,0,0,0,4.6,2.66l1.38.42v7.28a3.56,3.56,0,0,1-2.61-1.49,8.51,8.51,0,0,1-.66-2.88H32.12c0,3.15.92,5.38,2.87,6.69a11.71,11.71,0,0,0,5,1.46v3.4h1.66V83.32a10.16,10.16,0,0,0,4.57-1.4,6.79,6.79,0,0,0,3.15-6.24A6,6,0,0,0,47.09,70.63ZM40,67.68a6.24,6.24,0,0,1-1.84-.85,2.72,2.72,0,0,1-1.07-2.27,2.86,2.86,0,0,1,.71-2.07,3,3,0,0,1,2.2-.8ZM43.6,78.9a4.37,4.37,0,0,1-1.94.62V72.85a7.08,7.08,0,0,1,2,1,2.88,2.88,0,0,1,1,2.32A3.18,3.18,0,0,1,43.6,78.9Z" style="fill:#003478"/><path d="M40.75,40.43A30.76,30.76,0,1,0,71.5,71.18,30.75,30.75,0,0,0,40.75,40.43Zm0,57.17A26.42,26.42,0,1,1,67.17,71.18,26.41,26.41,0,0,1,40.75,97.6Z" style="fill:#003478"/><polygon points="178.02 128.36 30.23 128.36 25.6 116.64 30.23 97.14 55.32 92.51 72.36 75.36 122.67 74.37 138.34 97.14 178.02 97.14 187.42 113.77 178.02 128.36" style="fill:#fff"/><path d="M57.77,135.89a11.62,11.62,0,1,1,11.62-11.62A11.61,11.61,0,0,1,57.77,135.89Z" style="fill:#fff"/><path d="M154.93,135.89a11.62,11.62,0,1,1,11.62-11.62A11.61,11.61,0,0,1,154.93,135.89Z" style="fill:#fff"/><path d="M186,105.33l-.41-1.38a12.39,12.39,0,0,0-12-10.28L142.3,91.82,127.42,75.3a14,14,0,0,0-9.94-4.12h-46l-1.54,1.35L50,91.91l-14.36.5-.77.09-1.58.2a7.66,7.66,0,0,0-6.64,6.62v.09l-1,9.27a7.67,7.67,0,0,0-3.77,6.59v1.67c0,6.61,4.09,9.91,7.65,12l.86.52a15.71,15.71,0,0,0,8.1,2.24h11l-2.76-5.89c0-.43,0-1.66.07-2.27s.06-1.28.06-1.57c0-4.75,5.42-7.24,10.94-7.24,5.31,0,10.94,3,10.94,8,0,.22,0,.78,0,1.43,0,.49.06,1.37.07,1.74l-2.76,5.8h80.21l-2.77-6c0-.35-.05-2.4-.05-3,0-4.85,6.13-8.19,11.51-8.19s11.31,3.15,11.31,8c0,.59,0,2.64,0,3.07l-2.72,5.4,5.62-.08,1.8.19.29,0h.28c4.28,0,10.39-1.22,13.34-4.32,2.59-2.72,5.12-5.84,5.12-11.33V112.4A8.23,8.23,0,0,0,186,105.33ZM125.4,80.08l10,11.74H104.57l-1.77-16,14.53,0C120.52,75.75,123.78,78.46,125.4,80.08ZM98.7,91.82H75.64l7-16.16,14.42,0ZM73,75.48H77.1L69.32,91.82H56.76Zm111.75,40.1c0,3.39-2.14,5.16-4.48,7.62-1.95,2-5.62,2.61-8.45,2.61l-1.82-.19c0-.48.07-2.45.07-3,0-8.18-9.59-13.56-14.69-13.56-4.89,0-14.9,5.57-14.9,13.75,0,.5.33,3,.37,3.52H72.15c0-.48-.41-3-.41-3.52,0-8.18-8.35-13.56-14.32-13.56-5.3,0-14.31,4.62-14.31,12.8,0,.68-.27,3.6-.2,4.36H37.84a6.35,6.35,0,0,1-4.5-1.28l-.86-.52c-3.13-1.88-5.36-3.89-5.36-7.54v-1.67A2.48,2.48,0,0,1,28.87,113a2.21,2.21,0,0,0,1.77-1.89l1.26-10.52a3.8,3.8,0,0,1,2.6-2.55l1.59-.19,1.31-.17,8.78-.58H144.6L172.78,99c1.43,0,3.35,1.29,4.52,2.11,1.63,1.12,2.7,2,3,4l.71,2.36a2.86,2.86,0,0,0,1.78,2.28,3.06,3.06,0,0,1,2,2.64Z" style="fill:#003478"/><path d="M57.72,109A15.3,15.3,0,1,0,73,124.27,15.29,15.29,0,0,0,57.72,109Zm0,24.66a9.37,9.37,0,1,1,9.36-9.37A9.37,9.37,0,0,1,57.72,133.64Z" style="fill:#003478"/><path d="M154.88,109a15.3,15.3,0,1,0,15.3,15.29A15.28,15.28,0,0,0,154.88,109Zm0,24.66a9.37,9.37,0,1,1,9.37-9.37A9.37,9.37,0,0,1,154.88,133.64Z" style="fill:#003478"/></svg>