<svg id="Layer_1" data-name="Layer 1" xmlns="http://www.w3.org/2000/svg" viewBox="0 0 200 200"><circle cx="40.51" cy="72.94" r="28.86" style="fill:#ffe600"/><path d="M40.65,41.87A30.65,30.65,0,1,0,71.3,72.52,30.65,30.65,0,0,0,40.65,41.87Zm0,57A26.33,26.33,0,1,1,67,72.52,26.32,26.32,0,0,1,40.65,98.84Z" style="fill:#003478"/><path d="M32.84,78.07a10.15,10.15,0,0,1-5.11,1.36A8.29,8.29,0,0,1,24.85,79a6.74,6.74,0,0,1-2.3-1.4A6.45,6.45,0,0,1,21,75.29a7.08,7.08,0,0,1-.53-2.77,6.49,6.49,0,0,1,2.07-5A7.82,7.82,0,0,1,28,65.59a10.55,10.55,0,0,1,2.39.27,10.93,10.93,0,0,1,2.3.82v3.14a9.08,9.08,0,0,0-2.23-1.07,7.28,7.28,0,0,0-2.24-.36,4.44,4.44,0,0,0-3.18,1.1,3.94,3.94,0,0,0-1.16,3,4.08,4.08,0,0,0,1.1,3,4,4,0,0,0,3,1.12,7.33,7.33,0,0,0,2.41-.42A10.58,10.58,0,0,0,32.84,75Z" style="fill:#003478"/><path d="M38.75,79.19V68.31H34.32V65.82H46.69v2.49H42.27V79.19Z" style="fill:#003478"/><path d="M48.51,79.19V65.82h4.93a6.65,6.65,0,0,1,4,1,3.52,3.52,0,0,1,1.3,3,3.61,3.61,0,0,1-1.39,3.11,7,7,0,0,1-4.2,1h-1.3v5.23Zm5-7.82A2.22,2.22,0,0,0,54.87,71a1.66,1.66,0,0,0,0-2.29,2.13,2.13,0,0,0-1.37-.39H51.87v3.06Z" style="fill:#003478"/><polygon points="178.06 128.97 30.75 128.97 26.14 117.28 30.75 97.85 55.76 93.23 72.74 76.14 122.89 75.16 138.51 97.85 178.06 97.85 187.43 114.43 178.06 128.97" style="fill:#fff"/><path d="M58.21,136.47a11.58,11.58,0,1,1,11.57-11.58A11.58,11.58,0,0,1,58.21,136.47Z" style="fill:#fff"/><path d="M155.05,136.47a11.58,11.58,0,1,1,11.57-11.58A11.58,11.58,0,0,1,155.05,136.47Z" style="fill:#fff"/><path d="M186.06,106l-.42-1.38a12.34,12.34,0,0,0-11.92-10.24l-31.26-1.84L127.63,76.08a13.92,13.92,0,0,0-9.91-4.1H71.83L70.3,73.32,50.46,92.64l-14.31.49-.77.1-1.57.19a7.63,7.63,0,0,0-6.62,6.6v.09l-1,9.24a7.65,7.65,0,0,0-3.76,6.57v1.66c0,6.59,4.07,9.88,7.62,12l.86.51A15.74,15.74,0,0,0,39,132.34H50l-2.75-5.88c0-.42,0-1.66.07-2.26s.06-1.28.06-1.56c0-4.74,5.4-7.22,10.9-7.22,5.3,0,10.9,3,10.9,8,0,.23,0,.78.06,1.43,0,.49.06,1.36.07,1.73l-2.75,5.79h79.94l-2.76-6c0-.34,0-2.39,0-3,0-4.83,6.11-8.16,11.47-8.16s11.28,3.14,11.28,8c0,.58,0,2.63-.05,3.06l-2.71,5.37,5.6-.07,1.8.19.28,0h.28c4.27,0,10.36-1.23,13.3-4.31,2.58-2.71,5.1-5.82,5.1-11.29v-3.14A8.21,8.21,0,0,0,186.06,106ZM125.61,80.84l10,11.71H104.85l-1.76-16,14.48,0C120.74,76.52,124,79.23,125.61,80.84ZM99,92.55H76l6.92-16.12,14.38,0ZM73.4,76.25h4.07l-7.75,16.3H57.19Zm111.39,40c0,3.38-2.13,5.15-4.47,7.6-1.94,2-5.6,2.61-8.42,2.61l-1.81-.19c0-.49.07-2.45.07-2.95,0-8.15-9.57-13.51-14.65-13.51-4.87,0-14.84,5.55-14.84,13.7,0,.5.32,3,.37,3.51H72.54c0-.48-.41-3-.41-3.51,0-8.15-8.33-13.51-14.27-13.51-5.29,0-14.27,4.6-14.27,12.75,0,.68-.27,3.59-.19,4.35H38.34a6.33,6.33,0,0,1-4.49-1.28l-.86-.51c-3.12-1.88-5.33-3.88-5.33-7.52v-1.67a2.46,2.46,0,0,1,1.74-2.4,2.22,2.22,0,0,0,1.76-1.89l1.25-10.48A3.77,3.77,0,0,1,35,98.78l1.59-.2,1.3-.16c.12,0,4.61-.31,8.75-.58h98.1l28.09,1.88c1.42,0,3.33,1.29,4.5,2.1,1.62,1.12,2.7,2,3,4l.7,2.35a2.86,2.86,0,0,0,1.77,2.28,3,3,0,0,1,2,2.62Z" style="fill:#003478"/><path d="M58.15,109.64A15.25,15.25,0,1,0,73.4,124.89,15.24,15.24,0,0,0,58.15,109.64Zm0,24.58a9.33,9.33,0,1,1,9.34-9.33A9.33,9.33,0,0,1,58.15,134.22Z" style="fill:#003478"/><path d="M155,109.64a15.25,15.25,0,1,0,15.24,15.25A15.25,15.25,0,0,0,155,109.64Zm0,24.58a9.33,9.33,0,1,1,9.33-9.33A9.34,9.34,0,0,1,155,134.22Z" style="fill:#003478"/></svg>