<svg id="Layer_1" data-name="Layer 1" xmlns="http://www.w3.org/2000/svg" viewBox="0 0 200 200"><path d="M173.92,98.41l-5.2-5.79-4.34-13.31,8.1-.87,1.44-9.25-9.54-1.45-5.79,3.47-13-28.06L54.43,44l-12.15,26-6.08-.86-10.7.29,1.44,8.39,9.26,1.44v2l-7.81,6.94-4.92,46.87,6.37,11,.58,10.12,16.78,2.9,2.89-15.34,99.24,2.9,4.34,10.7L169,158V147l6.36-7.24ZM54.43,75.84l11-25.17h69.44L147.59,75Z" style="fill:#fff"/><path d="M140.36,99s18.81-1.16,21.12.29c0,0,4.63,12.44-1.15,17.07H133.71C133.42,116.35,131.68,101.59,140.36,99Z" style="fill:#ffe600"/><path d="M62.24,98.41s-18.8-1.16-21.12.29c0,0-4.63,12.44,1.16,17.07H68.9C69.19,115.77,70.92,101,62.24,98.41Z" style="fill:#ffe600"/><path d="M179.71,113.45a81.86,81.86,0,0,0-3.47-20,33,33,0,0,0-6.66-10.42h.87c1.45,0,6.66-.57,6.66-9.54,0-7.24-5.5-7.82-7.24-7.82h-5.2a10.43,10.43,0,0,0-5.5,1.16c-1.74-5.5-3.47-10.41-4.63-13.89l-1.16-3.18c-1.73-4.63-4.92-11-13.89-11.86-3.76-.29-21.7-.87-38.77-.87H99.28c-17.07,0-35,.58-39.06.87C51,38.81,47.78,45.17,46.33,49.8L45.17,53c-1.16,3.48-2.89,8.39-4.63,13.89a10.41,10.41,0,0,0-5.49-1.16H29.84c-1.74,0-7.24.58-7.24,7.82,0,9,5.21,9.54,6.66,9.54h.87c-3.19,3.77-5.5,7.24-6.66,10.71a72.21,72.21,0,0,0-3.47,20v19.1q0,11.28,6.08,14.75v5.79a9.63,9.63,0,0,0,9.54,9.55h7.53a9.63,9.63,0,0,0,9.54-9.55V149h94.62v4.34a9.63,9.63,0,0,0,9.54,9.55h7.53a9.63,9.63,0,0,0,9.54-9.55v-5.79q6.08-3.47,6.08-14.75V121.56C179.71,117.79,180,114.9,179.71,113.45Zm-28.64,28.07H48.93a3.83,3.83,0,0,0-3.76,3.76v8.1a2,2,0,0,1-2,2H35.62a2,2,0,0,1-2-2V145A3.47,3.47,0,0,0,31,141.52c-1.15-.29-3.47-1.16-3.47-9v-19.1A64.5,64.5,0,0,1,30.71,95.8C33,90,39.1,83.94,41.7,81.63a4.3,4.3,0,0,0,1.16-4,3,3,0,0,0-1.45-1.74,4.26,4.26,0,0,0,2.6-.58,1,1,0,0,0,.58-.29l.29-.29A7.65,7.65,0,0,0,46.33,73C48.64,65.71,51,59.06,52.41,55.3l1.15-3.18c1.45-4,3.19-6.37,7.52-6.95,3.19-.29,20.26-.87,38.2-.87h1.44c17.94,0,35,.58,38.2.87,4.62.58,6.36,2.9,7.52,6.95l1.15,3.18c1.45,4.05,3.77,10.41,6.08,17.65.29.87.58,1.44,1.45,1.73l.29.29c.29.29.29.29.58.29a8.35,8.35,0,0,0,2.6.58,4.26,4.26,0,0,0-1.45,1.74,3.58,3.58,0,0,0,1.16,4c2.6,2.31,9,8.39,11,14.17a74.65,74.65,0,0,1,3.19,17.65v18.81c0,7.81-2.32,8.39-3.47,9a4,4,0,0,0-2.61,3.47v8.39a2,2,0,0,1-2,2h-7.53a2,2,0,0,1-2-2V145A3.59,3.59,0,0,0,151.07,141.52Zm-120.94-68v-.29h4.63c1.15,0,1.44,0,1.73.29l.29.29a3.92,3.92,0,0,0,2,1.73H30.13Zm133.09.29a1,1,0,0,0,.29-.58h6.07v.29c0,1.15,0,1.73-.29,2h-8.68A6,6,0,0,0,163.22,73.82Z" style="fill:#233a74"/><path d="M67.16,119.53H44.59a8.89,8.89,0,0,1-9-9.26c0-1.73.29-3.47.29-5.21l.29-2a9.69,9.69,0,0,1,9.55-8.68H57.32c4.63,0,10.71,2.31,13.31,8.39l.29.87c2,4.92,4.34,10.12,1.74,13.6A7,7,0,0,1,67.16,119.53ZM45.75,100.72c-1.74,0-2.6,1.74-2.89,2.9l-.29,2a26.43,26.43,0,0,0-.29,4.63c0,2,1.16,2.61,2.31,2.61H67.16c0-1.74-1.74-5.21-2.31-6.95l-.29-.87c-1.74-4-6.08-4-7-4H45.75Z" style="fill:#003478"/><path d="M147.88,76.42l-.29-1.16q-1.72-5.2-3.47-10.41c-1.15-3.19-2.31-6.95-3.47-10.71-1.45-4-4.05-5.79-8.1-5.79l-32.69-.57-32.7.57c-4,0-6.65,1.74-8.1,5.79-1.45,3.47-2.31,7.23-3.47,10.71s-2,6.94-3.47,10.41l-.29,1.16a2.52,2.52,0,0,0,.29,2,2,2,0,0,0,1.73.87h91.72a2.07,2.07,0,0,0,1.74-.87A1.91,1.91,0,0,0,147.88,76.42Zm-5.2-1.74H57.32c.87-2.89,2-5.78,2.61-8.68q1.73-5.2,3.47-10.41c.87-2.32,1.45-2.9,3.76-2.9l32.7-.57,32.69.86c2.31,0,2.89.58,3.76,2.9q1.74,5.2,3.47,10.41h0C140.65,68.9,141.52,71.79,142.68,74.68Z" style="fill:#233a74"/><path d="M158.3,119.53H135.73a6.22,6.22,0,0,1-5.49-2.6c-2.32-3.48-.29-8.68,1.73-13.6l.29-.87c2.6-6.08,8.39-8.39,13.31-8.39h11.57a9.69,9.69,0,0,1,9.55,8.68l.29,2a36.91,36.91,0,0,1,.29,5.5A8.89,8.89,0,0,1,158.3,119.53Zm-22.57-6.65H158.3c1.16,0,2.31-.58,2.31-2.61,0-1.45-.28-2.89-.28-4.63l-.29-2a2.89,2.89,0,0,0-2.9-2.9H145.57c-.87,0-5.21.29-6.94,4l-.29.87C137.47,107.67,135.73,111.14,135.73,112.88Z" style="fill:#003478"/></svg>