<svg id="RACQ-Logo" xmlns="http://www.w3.org/2000/svg" xmlns:xlink="http://www.w3.org/1999/xlink" width="120" height="30.473" viewBox="0 0 120 30.473">
  <defs>
    <linearGradient id="linear-gradient" x1="0.5" y1="0.001" x2="0.5" y2="1" gradientUnits="objectBoundingBox">
      <stop offset="0" stop-color="#e98300"/>
      <stop offset="0.1" stop-color="#ef9f00"/>
      <stop offset="0.221" stop-color="#f5b900"/>
      <stop offset="0.356" stop-color="#f9cd00"/>
      <stop offset="0.508" stop-color="#fddb00"/>
      <stop offset="0.693" stop-color="#fee300"/>
      <stop offset="1" stop-color="#ffe600"/>
    </linearGradient>
    <linearGradient id="linear-gradient-2" x1="0.5" y1="1" x2="0.5" y2="0" xlink:href="#linear-gradient"/>
  </defs>
  <g id="Group_2" data-name="Group 2" transform="translate(51.741)">
    <g id="Group_1" data-name="Group 1">
      <path id="Path_1" data-name="Path 1" d="M367.1,16.645a15.967,15.967,0,0,1,4.172-11.3A16.387,16.387,0,0,1,383.548,0a13.976,13.976,0,0,1,9.782,3.622l-1.748,2.185a3.813,3.813,0,0,1-2.467,1.705,4.156,4.156,0,0,1-2.537-.423,8.35,8.35,0,0,0-3.312-.733c-5,0-8.7,3.82-8.7,9.711,0,5.6,3.242,7.188,6.089,7.188a11.147,11.147,0,0,0,4.426-1.015,5.008,5.008,0,0,1,2.185-.521,2.57,2.57,0,0,1,2.326,1.494l1.607,2.481c-1.268,1.071-4.482,3.975-11.106,3.975a12.262,12.262,0,0,1-5.694-1.085A12.848,12.848,0,0,1,367.1,16.645Z" transform="translate(-367.1 0)" fill="#003478"/>
    </g>
  </g>
  <path id="Path_2" data-name="Path 2" d="M46.963,2.8h-8.6L25.088,28.029,22.636,23.42c-1.353-2.593-2-3.679-3.143-4.116,4.158-1.142,6.216-3.5,6.92-7.3.7-3.777-1.381-6.3-4.13-7.921-2-1.184-5.5-1.268-9.415-1.268H4.313L0,31.665H7.47L9.175,20.291h.592a5.878,5.878,0,0,1,5.44,3.242c-.014.014,2.988,5.581,2.988,5.6,1.212,2.368,2.156,2.551,4.679,2.551H27.16c1.875,0,3.679,0,4.806-2.4l1.959-3.749h10.43s.832,3.735.817,3.721c.451,2.41,2.354,2.438,4.313,2.424h3.707ZM19.042,11.679c-.2,1.3-1.156,3.411-6.187,3.411h-2.9l1.071-6.977s3.171,0,3.171-.014C19.239,8.114,19.253,10.355,19.042,11.679Zm17.632,8.612,4.651-8.823,1.9,8.823Z" transform="translate(0 -2.405)" fill="#003478"/>
  <g id="Group_4" data-name="Group 4" transform="translate(90.162 17.096)">
    <path id="Path_3" data-name="Path 3" d="M659.01,132.716c-4.228,1.748-6.977-.564-8.781-2.664l-5.074-6.046A6.766,6.766,0,0,0,639.7,121.3h2.241a6.747,6.747,0,0,1,5.455,2.706l5.074,6.046A6.928,6.928,0,0,0,659.01,132.716Z" transform="translate(-639.7 -121.3)" fill="url(#linear-gradient)"/>
    <g id="Group_3" data-name="Group 3" transform="translate(13.206 0.014)">
      <path id="Path_4" data-name="Path 4" d="M741.152,131.1l5.426-6.469a16.075,16.075,0,0,1,3.453-3.228h-6.667a6.747,6.747,0,0,0-5.455,2.706l-4.51,5.384C735.416,131.844,739.306,133.281,741.152,131.1Z" transform="translate(-733.4 -121.4)" fill="url(#linear-gradient-2)"/>
    </g>
  </g>
  <path id="Path_5" data-name="Path 5" d="M562.8,28.513c-4.228,1.748-6.977-.564-8.781-2.664L548.94,19.8a6.765,6.765,0,0,0-5.454-2.706H539.06a16.37,16.37,0,0,1,3.467,3.228l1.945,2.311a9.09,9.09,0,0,1-3.073.578c-3.848-.028-6.173-2.593-6.216-7.23.014-5.61,3.707-9.57,8.6-9.57,3.608.014,6.23,2.819,6.244,6.949a13.317,13.317,0,0,1-.606,3.9h0a8.77,8.77,0,0,1,2.354,2.03l2.89,3.453h0a17.325,17.325,0,0,0,2.889-9.7,12.838,12.838,0,0,0-4.962-10.528A13.737,13.737,0,0,0,544.134,0a16.532,16.532,0,0,0-12.262,5.342,16.171,16.171,0,0,0-4.172,11.3,12.934,12.934,0,0,0,7.625,12.093,13.48,13.48,0,0,0,5.37.916,16.433,16.433,0,0,0,8.161-1.8c1.832,1.875,4.228,2.622,7.343,2.622A10.126,10.126,0,0,0,562.8,28.513Z" transform="translate(-453.324 0)" fill="#003478"/>
</svg>
