<svg id="Layer_1" data-name="Layer 1" xmlns="http://www.w3.org/2000/svg" viewBox="0 0 200 200"><polygon points="78.05 53.05 40.69 147.47 12.25 147.47 70.38 53.05 78.05 53.05" style="fill:#ffe600"/><polygon points="170.43 120.34 187.75 147.47 158.52 147.47 120.8 53.05 129.64 53.05 170.43 120.34" style="fill:#ffe600"/><polygon points="100 53.05 120.8 53.05 158.89 147.47 100 147.47 41.54 147.47 79.23 53.05 100 53.05" style="fill:#fff"/><rect x="97.06" y="52.02" width="5.89" height="12.74" style="fill:#003478"/><rect x="97.06" y="72.7" width="5.89" height="12.72" style="fill:#003478"/><rect x="97.06" y="93.38" width="5.89" height="12.72" style="fill:#003478"/><rect x="97.06" y="114.05" width="5.89" height="12.74" style="fill:#003478"/><rect x="97.06" y="134.73" width="5.89" height="12.74" style="fill:#003478"/><path d="M187.75,149.72H12.25a2.26,2.26,0,0,1-1.9-3.46L68.48,51.84a2.26,2.26,0,0,1,1.9-1h59.26a2.23,2.23,0,0,1,1.89,1l58.12,94.42a2.26,2.26,0,0,1-1.9,3.46ZM18.56,143.8H181.5L128.23,56.7H72Z" style="fill:#003478"/><polygon points="42.55 148.19 38.84 146.75 77.37 52.33 81.08 53.77 42.55 148.19" style="fill:#003478"/><polygon points="157.48 148.19 118.95 53.77 122.64 52.33 161.18 146.75 157.48 148.19" style="fill:#003478"/></svg>