<svg xmlns="http://www.w3.org/2000/svg" width="1200" height="736.81" viewBox="0 0 1200 736.81"><title>solutions-qualify-product-qualification-v7</title><g id="Layer_3" data-name="Layer 3"><circle cx="391.11" cy="174.22" r="22.33" fill="#fcfcfc" stroke="#10719e" stroke-miterlimit="10" stroke-width="4"/><path d="M385.34,182.54l8.31-8.32-8.31-8.32a1.48,1.48,0,0,1,0-2.1h0a1.48,1.48,0,0,1,2.1,0l9.47,9.47a1.35,1.35,0,0,1,0,1.9l-9.47,9.47a1.48,1.48,0,0,1-2.1,0h0A1.48,1.48,0,0,1,385.34,182.54Z" fill="#10719e"/><circle cx="808.89" cy="174.22" r="22.33" fill="#fcfcfc" stroke="#10719e" stroke-miterlimit="10" stroke-width="4"/><path d="M803.13,182.54l8.31-8.32-8.31-8.32a1.48,1.48,0,0,1,0-2.1h0a1.48,1.48,0,0,1,2.1,0l9.47,9.47a1.35,1.35,0,0,1,0,1.9l-9.47,9.47a1.48,1.48,0,0,1-2.1,0h0A1.48,1.48,0,0,1,803.13,182.54Z" fill="#10719e"/><rect x="37.52" y="29.54" width="289.37" height="289.37" rx="18.15" fill="#fff" stroke="#10719e" stroke-miterlimit="10" stroke-width="4"/><rect x="98.18" y="97.59" width="146.41" height="62.37" rx="9.83" fill="#f7697d"/><path d="M139.62,122.67a3.51,3.51,0,0,0-2.93-1.32c-1.37,0-2.74.61-2.74,2.15,0,3.36,7.94,1.44,7.94,7.4,0,3.6-2.83,5.35-6.12,5.35a7,7,0,0,1-5.49-2.27l2.25-2.18a4,4,0,0,0,3.31,1.75c1.37,0,2.93-.75,2.93-2.29,0-3.67-7.94-1.56-7.94-7.55,0-3.45,3.07-5.06,6.17-5.06a6.87,6.87,0,0,1,4.8,1.73Z" fill="#fff"/><path d="M146.17,118.91a1.71,1.71,0,1,1-1.79,1.71A1.75,1.75,0,0,1,146.17,118.91Zm-1.39,5.56h2.84v11.35h-2.84Z" fill="#fff"/><path d="M162.56,124.47v10.34c0,4.09-2,6.69-6.41,6.69a8.05,8.05,0,0,1-5.62-1.87l1.7-2.32a5.47,5.47,0,0,0,3.9,1.63c2.75,0,3.6-1.56,3.6-3.8v-.83h0A4.63,4.63,0,0,1,156,136a5.56,5.56,0,0,1-5.66-5.81c0-3.36,2.11-6,5.61-6a4.38,4.38,0,0,1,3.9,2h.05v-1.7Zm-9.41,5.65a3.28,3.28,0,0,0,3.34,3.29,3.34,3.34,0,1,0-3.34-3.29Z" fill="#fff"/><path d="M165.78,124.47h2.7v1.82h0a3.57,3.57,0,0,1,3.48-2.1c3.05,0,4.14,2.15,4.14,4.47v7.16H173.3v-5.74c0-1.26-.09-3.34-2.08-3.34s-2.6,1.37-2.6,2.89v6.19h-2.84Z" fill="#fff"/><path d="M196.71,135.82H194V134H194a3.55,3.55,0,0,1-3.48,2.11c-3.05,0-4.13-2.16-4.13-4.47v-7.17h2.83v5.75c0,1.25.1,3.33,2.08,3.33s2.61-1.37,2.61-2.88v-6.2h2.83Z" fill="#fff"/><path d="M199.93,124.47h2.7v1.7h0a4.38,4.38,0,0,1,3.91-2c3.5,0,5.6,2.6,5.6,6s-2.24,6-5.49,6a4.68,4.68,0,0,1-3.85-1.73h-.07v6.84h-2.84Zm6.08,2.27a3.41,3.41,0,1,0,3.33,3.41A3.29,3.29,0,0,0,206,126.74Z" fill="#fff"/><line x1="69.03" y1="103.23" x2="88.24" y2="103.23" fill="none" stroke="#b9bbbb" stroke-linecap="round" stroke-miterlimit="10" stroke-width="3.5"/><line x1="72.91" y1="86.48" x2="89.54" y2="96.09" fill="none" stroke="#b9bbbb" stroke-linecap="round" stroke-miterlimit="10" stroke-width="3.5"/><line x1="85.34" y1="74.99" x2="94.95" y2="91.63" fill="none" stroke="#b9bbbb" stroke-linecap="round" stroke-miterlimit="10" stroke-width="3.5"/><line x1="102.34" y1="69.25" x2="102.34" y2="88.46" fill="none" stroke="#b9bbbb" stroke-linecap="round" stroke-miterlimit="10" stroke-width="3.5"/><path d="M138.29,241.7h2.08l7.28,17H145l-1.71-4.2h-8.08l-1.68,4.2H130.8Zm4.13,10.78-3.17-7.8h-.05l-3.22,7.8Z" fill="#060707"/><path d="M157.44,250.34a3.61,3.61,0,0,0-2.83-1.27c-2.36,0-3.56,1.9-3.56,4a3.65,3.65,0,0,0,3.68,3.87,3.37,3.37,0,0,0,2.76-1.27l1.53,1.53A5.57,5.57,0,0,1,154.7,259a6,6,0,0,1,0-11.92,5.81,5.81,0,0,1,4.37,1.8Z" fill="#060707"/><path d="M169,250.34a3.64,3.64,0,0,0-2.84-1.27c-2.35,0-3.55,1.9-3.55,4a3.65,3.65,0,0,0,3.67,3.87,3.37,3.37,0,0,0,2.76-1.27l1.54,1.53a5.59,5.59,0,0,1-4.32,1.75,6,6,0,0,1,0-11.92,5.81,5.81,0,0,1,4.37,1.8Z" fill="#060707"/><path d="M177.93,247a6,6,0,1,1-6,6A6,6,0,0,1,177.93,247Zm0,9.94a4,4,0,1,0-3.74-4A3.65,3.65,0,0,0,177.93,257Z" fill="#060707"/><path d="M196.77,258.7h-2.16v-1.76h0a4,4,0,0,1-3.75,2c-2.21,0-4.13-1.32-4.13-4.34v-7.32h2.16V254c0,2.14,1.23,2.93,2.6,2.93,1.8,0,3.16-1.15,3.16-3.79v-5.86h2.16Z" fill="#060707"/><path d="M200,247.32h2.16v1.75h.05a4,4,0,0,1,3.74-2c2.21,0,4.13,1.32,4.13,4.35v7.32H208V252c0-2.14-1.23-2.93-2.59-2.93-1.8,0-3.17,1.15-3.17,3.79v5.86H200Z" fill="#060707"/><path d="M219.48,249.19h-3.1v5.16c0,1.27,0,2.62,1.63,2.62a3,3,0,0,0,1.54-.34v2a4.84,4.84,0,0,1-1.94.38c-3.34,0-3.39-2-3.39-3.86v-5.93h-2.49v-1.87h2.49v-3.19h2.16v3.19h3.1Z" fill="#060707"/><path d="M159.23,272.66h-5.48V270.5H167v2.16h-5.47V287.5h-2.3Z" fill="#060707"/><path d="M166.69,276.12h2.16v1.75h.05a3.84,3.84,0,0,1,3.41-2,3,3,0,0,1,1,.15l-.1,2.32a4.47,4.47,0,0,0-1.06-.16c-2.11,0-3.26,1.15-3.26,3.64v5.72h-2.16Z" fill="#060707"/><path d="M176.82,270.45a1.59,1.59,0,1,1-1.59,1.59A1.6,1.6,0,0,1,176.82,270.45Zm-1.08,5.67h2.16V287.5h-2.16Z" fill="#060707"/><path d="M181.38,277.51a6.7,6.7,0,0,1,4.51-1.68c3.36,0,4.75,1.83,4.75,3.79v5.81a18,18,0,0,0,.1,2.07h-1.92c0-.58-.07-1.16-.07-1.73h-.05a4.34,4.34,0,0,1-4,2c-2.11,0-3.93-1.2-3.93-3.4,0-2.93,2.81-3.94,6.26-3.94h1.59V280a2.45,2.45,0,0,0-2.72-2.4,4.75,4.75,0,0,0-3.24,1.3Zm6.09,4.51c-2,0-4.53.36-4.53,2.19,0,1.29,1,1.85,2.45,1.85a3.08,3.08,0,0,0,3.24-3.32V282Z" fill="#060707"/><path d="M194,269.35h2.16V287.5H194Z" fill="#060707"/><rect x="456.3" y="29.54" width="289.37" height="289.37" rx="18.15" fill="#fff" stroke="#10719e" stroke-miterlimit="10" stroke-width="4"/><path d="M560.48,241.7h6c4.34,0,5.45,2.62,5.45,4.76s-1.11,4.75-5.45,4.75h-3.68v7.49h-2.3Zm2.3,7.49h3c1.82,0,3.65-.43,3.65-2.73s-1.83-2.74-3.65-2.74h-3Z" fill="#060707"/><path d="M574.16,247.32h2.16v1.75h0a3.84,3.84,0,0,1,3.41-2,3,3,0,0,1,1,.15l-.1,2.32a4.47,4.47,0,0,0-1.06-.16c-2.11,0-3.26,1.15-3.26,3.64v5.72h-2.16Z" fill="#060707"/><path d="M588.1,247a6,6,0,1,1-6,6A6,6,0,0,1,588.1,247Zm0,9.94a4,4,0,1,0-3.74-4A3.65,3.65,0,0,0,588.1,257Z" fill="#060707"/><path d="M608.26,258.7H606.1v-1.64h0a4.85,4.85,0,0,1-4,1.92,6,6,0,0,1,0-12,4.78,4.78,0,0,1,4,1.92h0v-8.4h2.16ZM606.1,253a3.75,3.75,0,1,0-3.74,4A3.65,3.65,0,0,0,606.1,253Z" fill="#060707"/><path d="M621.61,258.7h-2.16v-1.76h-.05a4,4,0,0,1-3.74,2c-2.21,0-4.13-1.32-4.13-4.34v-7.32h2.16V254c0,2.14,1.22,2.93,2.59,2.93,1.8,0,3.17-1.15,3.17-3.79v-5.86h2.16Z" fill="#060707"/><path d="M633,250.34a3.61,3.61,0,0,0-2.83-1.27c-2.36,0-3.56,1.9-3.56,4A3.65,3.65,0,0,0,630.3,257a3.37,3.37,0,0,0,2.76-1.27l1.53,1.53a5.59,5.59,0,0,1-4.32,1.75,6,6,0,0,1,0-11.92,5.81,5.81,0,0,1,4.37,1.8Z" fill="#060707"/><path d="M642.54,249.19h-3.1v5.16c0,1.27,0,2.62,1.63,2.62a3,3,0,0,0,1.54-.34v2a4.89,4.89,0,0,1-2,.38c-3.33,0-3.38-2-3.38-3.86v-5.93h-2.5v-1.87h2.5v-3.19h2.16v3.19h3.1Z" fill="#060707"/><path d="M536.32,279a8.86,8.86,0,1,1,8.86,8.93A8.65,8.65,0,0,1,536.32,279Zm15.27,0c0-3.72-2.52-6.77-6.41-6.77s-6.41,3-6.41,6.77,2.52,6.77,6.41,6.77S551.59,282.72,551.59,279Z" fill="#060707"/><path d="M556.8,276.12H559v1.75h0a4,4,0,0,1,3.75-2c2.21,0,4.13,1.32,4.13,4.35v7.32h-2.16v-6.72c0-2.14-1.23-2.93-2.6-2.93-1.8,0-3.16,1.15-3.16,3.79v5.86H556.8Z" fill="#060707"/><path d="M570.14,269.35h2.16v8.4h.05a4.78,4.78,0,0,1,4-1.92,6,6,0,0,1,0,11.95,4.84,4.84,0,0,1-4-1.92h-.05v1.64h-2.16Zm9.65,12.46a3.75,3.75,0,1,0-3.75,4A3.65,3.65,0,0,0,579.79,281.81Z" fill="#060707"/><path d="M590.3,275.83a6,6,0,1,1-6,6A6,6,0,0,1,590.3,275.83Zm0,9.94a4,4,0,1,0-3.74-4A3.65,3.65,0,0,0,590.3,285.77Z" fill="#060707"/><path d="M599.11,277.51a6.7,6.7,0,0,1,4.51-1.68c3.36,0,4.75,1.83,4.75,3.79v5.81a18,18,0,0,0,.1,2.07h-1.92c0-.58-.07-1.16-.07-1.73h-.05a4.34,4.34,0,0,1-4,2c-2.11,0-3.93-1.2-3.93-3.4,0-2.93,2.81-3.94,6.26-3.94h1.59V280a2.45,2.45,0,0,0-2.72-2.4,4.75,4.75,0,0,0-3.24,1.3ZM605.2,282c-2,0-4.53.36-4.53,2.19,0,1.29,1,1.85,2.45,1.85a3.08,3.08,0,0,0,3.24-3.32V282Z" fill="#060707"/><path d="M611.52,276.12h2.16v1.75h0a3.86,3.86,0,0,1,3.41-2,3,3,0,0,1,1,.15L618,278.3a4.47,4.47,0,0,0-1.06-.16c-2.11,0-3.26,1.15-3.26,3.64v5.72h-2.16Z" fill="#060707"/><path d="M631.37,287.5h-2.16v-1.64h-.05a4.85,4.85,0,0,1-4,1.92,6,6,0,0,1,0-11.95,4.78,4.78,0,0,1,4,1.92h.05v-8.4h2.16Zm-2.16-5.69a3.75,3.75,0,1,0-3.75,4A3.65,3.65,0,0,0,629.21,281.81Z" fill="#060707"/><path d="M635.9,270.45a1.59,1.59,0,1,1-1.58,1.59A1.6,1.6,0,0,1,635.9,270.45Zm-1.08,5.67H637V287.5h-2.16Z" fill="#060707"/><path d="M640.41,276.12h2.16v1.75h0a4,4,0,0,1,3.74-2c2.21,0,4.13,1.32,4.13,4.35v7.32h-2.16v-6.72c0-2.14-1.22-2.93-2.59-2.93-1.8,0-3.17,1.15-3.17,3.79v5.86h-2.16Z" fill="#060707"/><path d="M665.16,287.4c0,3.43-2.5,5.86-6.22,5.86a7.72,7.72,0,0,1-5.57-2l1.46-1.83a5.32,5.32,0,0,0,4.06,1.85c3.22,0,4.11-2,4.11-3.94v-1.68h-.08a4.46,4.46,0,0,1-3.93,2,5.91,5.91,0,0,1,0-11.81,4.88,4.88,0,0,1,4,1.92h0v-1.63h2.16Zm-9.65-5.59a3.75,3.75,0,1,0,7.49,0,3.75,3.75,0,1,0-7.49,0Z" fill="#060707"/><polyline points="614.37 100.7 614.37 97.66 583.54 97.66 583.54 130.08 614.37 130.34 614.37 114" fill="none" stroke="#050505" stroke-linecap="round" stroke-linejoin="round" stroke-width="3"/><polyline points="591.88 113.08 599.83 121.11 618.44 102.89" fill="none" stroke="#52bfa9" stroke-linecap="round" stroke-linejoin="round" stroke-width="3" fill-rule="evenodd"/><polyline points="614.7 71.36 614.7 87.23 583.54 87.23 583.54 71.33" fill="none" stroke="#050505" stroke-linecap="round" stroke-linejoin="round" stroke-width="3"/><polyline points="614.7 157.85 614.7 141.98 583.54 141.98 583.54 157.88" fill="none" stroke="#050505" stroke-linecap="round" stroke-linejoin="round" stroke-width="3"/><rect x="873.3" y="29.54" width="289.37" height="289.37" rx="18.15" fill="#fff" stroke="#10719e" stroke-miterlimit="10" stroke-width="4"/><path d="M977.48,241.7h6c4.34,0,5.44,2.62,5.44,4.76s-1.1,4.75-5.44,4.75h-3.68v7.49h-2.3Zm2.3,7.49h3c1.82,0,3.65-.43,3.65-2.73s-1.83-2.74-3.65-2.74h-3Z" fill="#060707"/><path d="M991.16,247.32h2.16v1.75h0a3.84,3.84,0,0,1,3.4-2,2.93,2.93,0,0,1,1,.15l-.09,2.32a4.47,4.47,0,0,0-1.06-.16c-2.11,0-3.26,1.15-3.26,3.64v5.72h-2.16Z" fill="#060707"/><path d="M1005.1,247a6,6,0,1,1-6.05,6A6,6,0,0,1,1005.1,247Zm0,9.94a4,4,0,1,0-3.74-4A3.65,3.65,0,0,0,1005.1,257Z" fill="#060707"/><path d="M1025.26,258.7h-2.16v-1.64h-.05a4.84,4.84,0,0,1-4,1.92,6,6,0,0,1,0-12,4.75,4.75,0,0,1,4,1.92h.05v-8.4h2.16ZM1023.1,253a3.75,3.75,0,1,0-3.74,4A3.65,3.65,0,0,0,1023.1,253Z" fill="#060707"/><path d="M1038.61,258.7h-2.16v-1.76h0a4,4,0,0,1-3.75,2c-2.2,0-4.12-1.32-4.12-4.34v-7.32h2.16V254c0,2.14,1.22,2.93,2.59,2.93,1.8,0,3.17-1.15,3.17-3.79v-5.86h2.16Z" fill="#060707"/><path d="M1050,250.34a3.64,3.64,0,0,0-2.84-1.27c-2.35,0-3.55,1.9-3.55,4a3.65,3.65,0,0,0,3.67,3.87,3.37,3.37,0,0,0,2.76-1.27l1.54,1.53a5.59,5.59,0,0,1-4.32,1.75,6,6,0,0,1,0-11.92,5.81,5.81,0,0,1,4.37,1.8Z" fill="#060707"/><path d="M1059.53,249.19h-3.09v5.16c0,1.27,0,2.62,1.63,2.62a3,3,0,0,0,1.54-.34v2a4.92,4.92,0,0,1-1.95.38c-3.33,0-3.38-2-3.38-3.86v-5.93h-2.5v-1.87h2.5v-3.19h2.16v3.19h3.09Z" fill="#060707"/><path d="M950.6,270.5h11v2.16H952.9v5.07H961v2.16H952.9v5.45H962v2.16H950.6Z" fill="#060707"/><path d="M964.71,276.12h2.16v1.75h0a4,4,0,0,1,3.74-2c2.21,0,4.13,1.32,4.13,4.35v7.32h-2.16v-6.72c0-2.14-1.22-2.93-2.59-2.93-1.8,0-3.17,1.15-3.17,3.79v5.86h-2.16Z" fill="#060707"/><path d="M989.46,287.4c0,3.43-2.5,5.86-6.22,5.86a7.72,7.72,0,0,1-5.57-2l1.46-1.83a5.3,5.3,0,0,0,4.06,1.85c3.22,0,4.1-2,4.1-3.94v-1.68h-.07a4.46,4.46,0,0,1-3.93,2,5.91,5.91,0,0,1,0-11.81,4.88,4.88,0,0,1,4,1.92h0v-1.63h2.17Zm-9.65-5.59a3.74,3.74,0,1,0,7.48,0,3.75,3.75,0,1,0-7.48,0Z" fill="#060707"/><path d="M992.77,277.51a6.68,6.68,0,0,1,4.51-1.68c3.36,0,4.75,1.83,4.75,3.79v5.81a16,16,0,0,0,.1,2.07h-1.92c-.05-.58-.08-1.16-.08-1.73h0a4.34,4.34,0,0,1-4,2c-2.11,0-3.93-1.2-3.93-3.4,0-2.93,2.8-3.94,6.26-3.94H1000V280a2.44,2.44,0,0,0-2.71-2.4,4.73,4.73,0,0,0-3.24,1.3Zm6.09,4.51c-2,0-4.53.36-4.53,2.19,0,1.29,1,1.85,2.44,1.85a3.08,3.08,0,0,0,3.24-3.32V282Z" fill="#060707"/><path d="M1016.58,287.4c0,3.43-2.5,5.86-6.22,5.86a7.72,7.72,0,0,1-5.57-2l1.46-1.83a5.3,5.3,0,0,0,4.06,1.85c3.22,0,4.11-2,4.11-3.94v-1.68h-.08a4.46,4.46,0,0,1-3.93,2,5.91,5.91,0,0,1,0-11.81,4.88,4.88,0,0,1,4,1.92h0v-1.63h2.16Zm-9.65-5.59a3.75,3.75,0,1,0,7.49,0,3.75,3.75,0,1,0-7.49,0Z" fill="#060707"/><path d="M1021.47,282.6a3.58,3.58,0,0,0,3.84,3.31,3.92,3.92,0,0,0,3.12-1.7l1.63,1.25a5.94,5.94,0,0,1-5,2.32,5.64,5.64,0,0,1-5.85-6,5.77,5.77,0,0,1,5.88-6c4,0,5.54,3.07,5.54,6v.77Zm6.82-1.73a3.09,3.09,0,0,0-3.29-3.31,3.51,3.51,0,0,0-3.53,3.31Z" fill="#060707"/><path d="M1033.18,276.12h2v1.78h0a4,4,0,0,1,3.64-2.07,3.7,3.7,0,0,1,3.56,2.11,4.11,4.11,0,0,1,3.6-2.11c3.5,0,4.32,2.5,4.32,5v6.63h-2.16v-6.34c0-1.73-.36-3.31-2.45-3.31s-2.91,1.41-2.91,3.43v6.22h-2.16v-6c0-2.16-.31-3.69-2.4-3.69-1.56,0-3,1.17-3,3.74v5.91h-2.16Z" fill="#060707"/><path d="M1055.26,282.6a3.58,3.58,0,0,0,3.84,3.31,3.92,3.92,0,0,0,3.12-1.7l1.63,1.25a5.94,5.94,0,0,1-5,2.32,5.64,5.64,0,0,1-5.85-6,5.77,5.77,0,0,1,5.88-6c4,0,5.54,3.07,5.54,6v.77Zm6.82-1.73a3.09,3.09,0,0,0-3.29-3.31,3.51,3.51,0,0,0-3.53,3.31Z" fill="#060707"/><path d="M1067,276.12h2.16v1.75h0a4,4,0,0,1,3.75-2c2.2,0,4.12,1.32,4.12,4.35v7.32h-2.16v-6.72c0-2.14-1.22-2.93-2.59-2.93-1.8,0-3.17,1.15-3.17,3.79v5.86H1067Z" fill="#060707"/><path d="M1086.41,278h-3.09v5.16c0,1.27,0,2.62,1.63,2.62a3,3,0,0,0,1.54-.34v2a4.92,4.92,0,0,1-2,.38c-3.33,0-3.38-2-3.38-3.86V278h-2.5v-1.87h2.5v-3.19h2.16v3.19h3.09Z" fill="#060707"/><path d="M1020.15,120.59l0,0-.11.14-5.54,9.79a1.23,1.23,0,0,0,.49,1.67l10.39,5.88a1.15,1.15,0,0,1-.38,1.47,7,7,0,0,0-2.34,2.5c-2.78,4.94.9,11.79,8.27,11.24A3.15,3.15,0,0,0,1032,153a7.73,7.73,0,0,0,4.84-6.78,1.16,1.16,0,0,1,1-1.1l10.33,5.84a1.21,1.21,0,0,0,1.64-.4l.26-.3,5.23-9.33a1.23,1.23,0,0,1,2,.08,7.78,7.78,0,0,0,2.64,2.45,7.57,7.57,0,1,0,7.44-13.19,7.75,7.75,0,0,0-3.47-1,1.23,1.23,0,0,1-1.08-1.64l5.27-9.31.13-.37a1.24,1.24,0,0,0-.12-1.26,1.74,1.74,0,0,1-.57-.19l-10.68-6,.44-.52a1.16,1.16,0,0,1,.5-.85l.18-.13a6.78,6.78,0,0,0,.47-1l0-.09.06-.08a6.17,6.17,0,0,0,.7-.94,6.85,6.85,0,0,0-2.05-8.83,6.52,6.52,0,0,0-.75-.5,8.34,8.34,0,0,0-3.91-1,8.55,8.55,0,0,0-1,0,2.29,2.29,0,0,0-.86.23,7.82,7.82,0,0,0-3.6,3.22,6.81,6.81,0,0,0-.47,1l0,.09-.07.08-.49.62c0,.21,0,.41,0,.62a1.11,1.11,0,0,1-.63,1l-.17.52-10.84-6.09a1.76,1.76,0,0,1-.37-.29,1.19,1.19,0,0,0-1.14.6l-5.51,9.81-.06.16,0,.06a1.23,1.23,0,0,0,1.19,1.79,8.27,8.27,0,0,1,7.65,4.75,7.72,7.72,0,0,1,.48,2.06,7.57,7.57,0,0,1-4.11,7.29,7.15,7.15,0,0,1-2,.66,8.26,8.26,0,0,1-8-4.08A1.23,1.23,0,0,0,1020.15,120.59Z" fill="#10719e"/><path d="M964.74,128.1v.51a1.2,1.2,0,0,0,1.08.71h11.25l.17,0h.07a1.23,1.23,0,0,0,1-1.92,8.29,8.29,0,0,1,.41-9,7.61,7.61,0,0,1,1.57-1.43,8.31,8.31,0,0,1,4.19-1.25,8.48,8.48,0,0,1,4.18,1.27,7.85,7.85,0,0,1,1.55,1.44,8.25,8.25,0,0,1,.36,9,1.23,1.23,0,0,0,1,1.92h.07l.18,0,11.24,0a1.23,1.23,0,0,0,1.22-1.24l0-11.94a1.16,1.16,0,0,1,1.47-.39,7.07,7.07,0,0,0,3.32.83c5.67,0,9.85-6.56,5.77-12.71a3.12,3.12,0,0,0-.78-.8,7.76,7.76,0,0,0-8.28-.92,1.16,1.16,0,0,1-1.44-.31l0-11.86a1.23,1.23,0,0,0-1.15-1.25l-.39-.07h-10.7a1.22,1.22,0,0,1-.89-1.75,7.69,7.69,0,0,0,.84-3.5,7.57,7.57,0,1,0-15.14,0,7.77,7.77,0,0,0,.84,3.51,1.24,1.24,0,0,1-.9,1.75l-10.71,0-.38.07a1.22,1.22,0,0,0-1,.71c0,.4,0,.51,0,.71Z" fill="none" stroke="#10719e" stroke-miterlimit="10" stroke-width="3"/><rect x="293.74" y="416.42" width="289.37" height="289.37" rx="18.15" fill="#fff" stroke="#10719e" stroke-miterlimit="10" stroke-width="4"/><path d="M408.93,633h2.67l5,13.83h.05L421.82,633h2.52l-6.7,17h-2.16Z" fill="#060707"/><path d="M424.56,640a6.68,6.68,0,0,1,4.51-1.68c3.36,0,4.75,1.83,4.75,3.8v5.8a15.92,15.92,0,0,0,.1,2.07H432c-.05-.58-.08-1.15-.08-1.73h0a4.35,4.35,0,0,1-4,2c-2.11,0-3.93-1.2-3.93-3.41,0-2.93,2.8-3.94,6.26-3.94h1.58v-.48a2.45,2.45,0,0,0-2.71-2.4,4.73,4.73,0,0,0-3.24,1.3Zm6.09,4.52c-2,0-4.53.36-4.53,2.18,0,1.3,1,1.85,2.44,1.85a3.07,3.07,0,0,0,3.24-3.31v-.72Z" fill="#060707"/><path d="M437.13,631.85h2.16V650h-2.16Z" fill="#060707"/><path d="M452.8,650h-2.16v-1.75h0a4,4,0,0,1-3.75,2c-2.21,0-4.13-1.32-4.13-4.35v-7.32h2.16v6.72c0,2.14,1.23,2.93,2.6,2.93,1.8,0,3.16-1.15,3.16-3.79v-5.86h2.16Z" fill="#060707"/><path d="M457.7,645.1a3.58,3.58,0,0,0,3.84,3.31,3.92,3.92,0,0,0,3.12-1.7l1.63,1.25a6,6,0,0,1-5,2.33,5.66,5.66,0,0,1-5.86-6,5.77,5.77,0,0,1,5.89-6c4,0,5.54,3.08,5.54,6v.77Zm6.82-1.73a3.09,3.09,0,0,0-3.29-3.31,3.51,3.51,0,0,0-3.53,3.31Z" fill="#060707"/><path d="M387.1,661.8H393c7.18,0,8.93,5.36,8.93,8.5,0,4.35-3.24,8.5-9.31,8.5H387.1Zm2.31,14.84h2.9c3.89,0,7.2-2.14,7.2-6.34,0-2.16-1.13-6.34-6.65-6.34h-3.45Z" fill="#060707"/><path d="M406,661.76a1.58,1.58,0,1,1-1.59,1.58A1.6,1.6,0,0,1,406,661.76Zm-1.08,5.66h2.16V678.8h-2.16Z" fill="#060707"/><path d="M416.53,670.28a2.88,2.88,0,0,0-2.33-1.13c-1,0-1.9.46-1.9,1.27,0,1.37,1.95,1.56,2.91,1.78,1.87.45,3.31,1.17,3.31,3.31,0,2.57-2.35,3.58-4.61,3.58a4.88,4.88,0,0,1-4.39-2l1.63-1.34a3.8,3.8,0,0,0,2.76,1.34c1.11,0,2.31-.46,2.31-1.44,0-1.3-1.8-1.54-2.74-1.75-1.85-.46-3.48-1.06-3.48-3.24,0-2.38,2.18-3.51,4.32-3.51a4.4,4.4,0,0,1,3.89,1.87Z" fill="#060707"/><path d="M429.27,670.45a3.62,3.62,0,0,0-2.83-1.28c-2.35,0-3.55,1.9-3.55,4a3.64,3.64,0,0,0,3.67,3.86,3.37,3.37,0,0,0,2.76-1.27l1.54,1.53a5.61,5.61,0,0,1-4.32,1.76,6,6,0,0,1,0-11.93,5.79,5.79,0,0,1,4.36,1.8Z" fill="#060707"/><path d="M438.2,667.13a6,6,0,1,1-6.05,6A6,6,0,0,1,438.2,667.13Zm0,9.94a4,4,0,1,0-3.75-4A3.65,3.65,0,0,0,438.2,677.07Z" fill="#060707"/><path d="M445.59,667.42h2.5l3.4,8.71,3.27-8.71h2.3L452.6,678.8h-2.38Z" fill="#060707"/><path d="M460.59,673.9a3.58,3.58,0,0,0,3.84,3.31,3.92,3.92,0,0,0,3.12-1.7l1.63,1.25a6,6,0,0,1-5,2.33,5.65,5.65,0,0,1-5.85-6,5.77,5.77,0,0,1,5.88-6c4,0,5.54,3.08,5.54,6v.77Zm6.82-1.73a3.09,3.09,0,0,0-3.29-3.31,3.51,3.51,0,0,0-3.53,3.31Z" fill="#060707"/><path d="M472.3,667.42h2.16v1.75h.05a3.84,3.84,0,0,1,3.41-2,3,3,0,0,1,1,.15l-.1,2.33a4,4,0,0,0-1-.17c-2.12,0-3.27,1.15-3.27,3.64v5.72H472.3Z" fill="#060707"/><path d="M479.81,667.42h2.5l3.38,8.88h.05l3.22-8.88h2.33l-5.4,13.83c-.77,2-1.52,3.31-3.89,3.31a5.19,5.19,0,0,1-1.92-.31l.26-2a3.47,3.47,0,0,0,1.3.26c1.37,0,1.77-.74,2.21-1.87l.69-1.8Z" fill="#060707"/><circle cx="434.24" cy="517.62" r="35.13" fill="#fff" stroke="#686969" stroke-miterlimit="10" stroke-width="4"/><circle cx="434.24" cy="517.62" r="22.76" fill="#77c595" stroke="#686969" stroke-miterlimit="10" stroke-width="4"/><circle cx="434.24" cy="517.62" r="10.12" fill="#fcfdff" stroke="#686969" stroke-miterlimit="10" stroke-width="4"/><polyline points="433.62 516.98 464.99 485.62 465.19 481.02 472.1 474.12 472.1 479.76 477.74 479.76 470.84 486.66 466.24 486.87 434.87 518.24" fill="#686969"/><circle cx="640.64" cy="561.11" r="22.33" fill="#fcfcfc" stroke="#10719e" stroke-miterlimit="10" stroke-width="4"/><path d="M634.88,569.43l8.3-8.32-8.3-8.32a1.48,1.48,0,0,1,0-2.1h0a1.48,1.48,0,0,1,2.1,0l9.47,9.47a1.35,1.35,0,0,1,0,1.9L637,571.53a1.48,1.48,0,0,1-2.1,0h0A1.48,1.48,0,0,1,634.88,569.43Z" fill="#10719e"/><circle cx="233.38" cy="561.11" r="22.33" fill="#fcfcfc" stroke="#10719e" stroke-miterlimit="10" stroke-width="4"/><path d="M227.61,569.43l8.31-8.32-8.31-8.32a1.48,1.48,0,0,1,0-2.1h0a1.48,1.48,0,0,1,2.1,0l9.47,9.47a1.35,1.35,0,0,1,0,1.9l-9.47,9.47a1.48,1.48,0,0,1-2.1,0h0A1.48,1.48,0,0,1,227.61,569.43Z" fill="#10719e"/><rect x="698.45" y="416.42" width="289.37" height="289.37" rx="18.15" fill="#fff" stroke="#10719e" stroke-miterlimit="10" stroke-width="4"/><path d="M808.21,629.57h5.9c2.95,0,5.16,1.37,5.16,4.25a3.83,3.83,0,0,1-2.93,3.75v0a4.11,4.11,0,0,1,3.68,4.23c0,3-2.67,4.73-6,4.73h-5.83Zm2.3,7.06h3.15c1.75,0,3.16-.7,3.16-2.55a2.41,2.41,0,0,0-2.68-2.49h-3.63Zm0,7.92h3.39c1.39,0,3.67-.48,3.67-2.88,0-2-1.42-3-3.65-3h-3.41Z" fill="#060707"/><path d="M832.86,646.57H830.7v-1.76h-.05a4,4,0,0,1-3.75,2c-2.2,0-4.12-1.32-4.12-4.34v-7.32h2.16v6.72c0,2.14,1.22,2.93,2.59,2.93,1.8,0,3.17-1.15,3.17-3.79v-5.86h2.16Z" fill="#060707"/><path d="M834.75,635.19h2.5l3.38,8.88h0l3.22-8.88h2.32L840.82,649c-.76,2-1.51,3.32-3.88,3.32A5.2,5.2,0,0,1,835,652l.26-2a3.63,3.63,0,0,0,1.3.26c1.36,0,1.77-.74,2.2-1.87l.7-1.8Z" fill="#060707"/><path d="M849.37,629.53a1.58,1.58,0,1,1-1.59,1.58A1.6,1.6,0,0,1,849.37,629.53Zm-1.08,5.66h2.16v11.38h-2.16Z" fill="#060707"/><path d="M853.88,635.19H856v1.75h.05a4,4,0,0,1,3.74-2c2.21,0,4.13,1.32,4.13,4.35v7.32H861.8v-6.72c0-2.14-1.22-2.93-2.59-2.93-1.8,0-3.17,1.15-3.17,3.79v5.86h-2.16Z" fill="#060707"/><path d="M878.62,646.47c0,3.43-2.49,5.86-6.21,5.86a7.72,7.72,0,0,1-5.57-2l1.46-1.83a5.3,5.3,0,0,0,4.06,1.85c3.22,0,4.1-2,4.1-3.94v-1.68h-.07a4.46,4.46,0,0,1-3.93,2,5.91,5.91,0,0,1,0-11.81,4.88,4.88,0,0,1,4,1.92h0v-1.63h2.16ZM869,640.88a3.74,3.74,0,1,0,7.48,0,3.75,3.75,0,1,0-7.48,0Z" fill="#060707"/><path d="M813.09,658.37h2.31v17h-2.31Z" fill="#060707"/><path d="M819.21,664h2.16v1.75h0a4,4,0,0,1,3.74-2c2.21,0,4.13,1.32,4.13,4.35v7.32h-2.16v-6.72c0-2.14-1.22-2.93-2.59-2.93-1.8,0-3.17,1.15-3.17,3.79v5.86h-2.16Z" fill="#060707"/><path d="M838.65,665.86h-3.09V671c0,1.27,0,2.62,1.63,2.62a3,3,0,0,0,1.53-.34v2a4.84,4.84,0,0,1-1.94.38c-3.34,0-3.38-2-3.38-3.86v-5.93h-2.5V664h2.5V660.8h2.16V664h3.09Z" fill="#060707"/><path d="M843.07,670.47a3.58,3.58,0,0,0,3.84,3.31,3.92,3.92,0,0,0,3.12-1.7l1.63,1.25a6,6,0,0,1-5,2.32,5.65,5.65,0,0,1-5.86-6,5.77,5.77,0,0,1,5.88-6c4,0,5.55,3.07,5.55,6v.77Zm6.81-1.73a3.07,3.07,0,0,0-3.28-3.31,3.51,3.51,0,0,0-3.53,3.31Z" fill="#060707"/><path d="M854.78,664h2.16v1.75h0a4,4,0,0,1,3.74-2c2.21,0,4.13,1.32,4.13,4.35v7.32H862.7v-6.72c0-2.14-1.22-2.93-2.59-2.93-1.8,0-3.17,1.15-3.17,3.79v5.86h-2.16Z" fill="#060707"/><path d="M874.22,665.86h-3.1V671c0,1.27,0,2.62,1.64,2.62a3,3,0,0,0,1.53-.34v2a4.84,4.84,0,0,1-1.94.38c-3.34,0-3.39-2-3.39-3.86v-5.93h-2.49V664H869V660.8h2.16V664h3.1Z" fill="#060707"/><rect x="814.3" y="480.75" width="43.47" height="72.45" rx="2.85" transform="translate(-62.37 915.82) rotate(-55.67)" fill="#b1dfe9"/><path d="M877,521.25l-22.06,32.31a2.18,2.18,0,0,1-3,.57L797,516.64l77.16.05,2.25,1.54A2.17,2.17,0,0,1,877,521.25Z" fill="#94bbc8" opacity="0.5" style="isolation:isolate"/><ellipse cx="866.92" cy="516.22" rx="0.91" ry="7.44" transform="translate(-48.21 941.16) rotate(-55.68)" fill="#fff"/><ellipse cx="856.65" cy="509.2" rx="0.91" ry="2.44" transform="matrix(0.56, -0.83, 0.83, 0.56, -46.97, 929.46)" fill="#fff"/><path d="M853.15,555.36a4.16,4.16,0,0,1-2.41-.74h0L795.61,517a4.27,4.27,0,0,1-1.11-5.93l21.3-31.2a4.26,4.26,0,0,1,5.93-1.12l55.13,37.64A4.26,4.26,0,0,1,878,522.3l-21.3,31.2A4.24,4.24,0,0,1,853.15,555.36Zm-.8-3.08a1.43,1.43,0,0,0,2-.37h0l21.31-31.21a1.43,1.43,0,0,0-.37-2h0l-55.14-37.64a1.43,1.43,0,0,0-2,.37h0l-21.31,31.2a1.43,1.43,0,0,0,.37,2h0Z" fill="#426572"/><rect x="821.06" y="506.42" width="3.44" height="1.9" transform="translate(-60.16 900.84) rotate(-55.68)" fill="#426572"/><rect x="823.55" y="508.13" width="3.44" height="1.9" transform="translate(-60.55 903.49) rotate(-55.67)" fill="#426572"/><rect x="826.04" y="509.83" width="3.44" height="1.9" transform="translate(-60.79 906.45) rotate(-55.68)" fill="#426572"/><rect x="828.53" y="511.53" width="3.44" height="1.9" transform="translate(-61.11 909.24) rotate(-55.68)" fill="#426572"/><rect x="832.23" y="514.05" width="3.44" height="1.9" transform="translate(-61.58 913.39) rotate(-55.68)" fill="#426572"/><rect x="834.72" y="515.75" width="3.44" height="1.9" transform="translate(-61.9 916.19) rotate(-55.68)" fill="#426572"/><rect x="837.21" y="517.45" width="3.44" height="1.9" transform="translate(-62.22 918.99) rotate(-55.68)" fill="#426572"/><rect x="839.71" y="519.16" width="3.44" height="1.9" transform="translate(-62.61 921.64) rotate(-55.67)" fill="#426572"/><rect x="843.39" y="521.68" width="3.44" height="1.9" transform="translate(-63.08 925.79) rotate(-55.67)" fill="#426572"/><rect x="845.89" y="523.38" width="3.44" height="1.9" transform="translate(-63.33 928.74) rotate(-55.68)" fill="#426572"/><rect x="848.38" y="525.09" width="3.44" height="1.9" transform="translate(-63.72 931.39) rotate(-55.67)" fill="#426572"/><rect x="850.87" y="526.78" width="3.44" height="1.9" transform="translate(-63.97 934.35) rotate(-55.68)" fill="#426572"/><rect x="816.78" y="500.52" width="2.85" height="26.99" transform="translate(-67.7 899.81) rotate(-55.67)" fill="#426572"/><rect x="807.79" y="507.66" width="2.85" height="11.41" transform="translate(-71.08 892.1) rotate(-55.67)" fill="#426572"/><circle cx="851.19" cy="541.36" r="3.99" fill="#fff"/><path d="M850.77,547.37a5.45,5.45,0,1,1,1-.1A5.76,5.76,0,0,1,850.77,547.37Zm0-8a2.56,2.56,0,1,0,2.11,4h0a2.56,2.56,0,0,0-.67-3.56A2.52,2.52,0,0,0,850.78,539.4Z" fill="#426572"/><rect x="835.2" y="477.36" width="43.47" height="72.45" rx="2.85" transform="translate(-135.64 400.05) rotate(-24.41)" fill="#b1dfe9"/><path d="M889.71,538.48l-35.62,16.17a2.18,2.18,0,0,1-2.88-1.09L823.74,493l65.93,40.09,1.13,2.49A2.18,2.18,0,0,1,889.71,538.48Z" fill="#94bbc8" opacity="0.5" style="isolation:isolate"/><ellipse cx="883.73" cy="528.96" rx="0.91" ry="7.44" transform="translate(-139.61 412.5) rotate(-24.41)" fill="#fff"/><ellipse cx="878.58" cy="517.64" rx="0.91" ry="2.44" transform="translate(-135.39 409.36) rotate(-24.41)" fill="#fff"/><path d="M853.86,555.9a4.29,4.29,0,0,1-3.9-2.51l-27.58-60.78a4.27,4.27,0,0,1,2.13-5.66h0l34.39-15.61a4.28,4.28,0,0,1,5.66,2.13h0l27.58,60.78a4.27,4.27,0,0,1-2.13,5.66h0l-34.39,15.6A4.25,4.25,0,0,1,853.86,555.9Zm-1.3-3.68a1.43,1.43,0,0,0,1.88.71h0l34.4-15.61a1.42,1.42,0,0,0,.71-1.89h0L862,474.64a1.43,1.43,0,0,0-1.88-.71h0l-34.4,15.61a1.43,1.43,0,0,0-.71,1.89h0Z" fill="#426572"/><rect x="848.86" y="497.55" width="3.44" height="1.9" transform="translate(-129.98 396.07) rotate(-24.41)" fill="#426572"/><rect x="850.11" y="500.3" width="3.44" height="1.9" transform="translate(-131 396.84) rotate(-24.41)" fill="#426572"/><rect x="851.36" y="503.04" width="3.44" height="1.9" transform="translate(-132.03 397.6) rotate(-24.41)" fill="#426572"/><rect x="852.6" y="505.79" width="3.44" height="1.9" transform="translate(-133.05 398.36) rotate(-24.41)" fill="#426572"/><rect x="854.45" y="509.86" width="3.44" height="1.9" transform="translate(-134.57 399.48) rotate(-24.41)" fill="#426572"/><rect x="855.7" y="512.61" width="3.44" height="1.9" transform="translate(-135.59 400.25) rotate(-24.41)" fill="#426572"/><rect x="856.94" y="515.36" width="3.44" height="1.9" transform="translate(-136.62 401.01) rotate(-24.41)" fill="#426572"/><rect x="858.19" y="518.11" width="3.44" height="1.9" transform="translate(-137.64 401.77) rotate(-24.41)" fill="#426572"/><rect x="860.04" y="522.18" width="3.44" height="1.9" transform="translate(-139.16 402.89) rotate(-24.41)" fill="#426572"/><rect x="861.29" y="524.93" width="3.44" height="1.9" transform="translate(-140.18 403.66) rotate(-24.41)" fill="#426572"/><rect x="862.53" y="527.68" width="3.44" height="1.9" transform="translate(-141.21 404.42) rotate(-24.41)" fill="#426572"/><rect x="863.78" y="530.42" width="3.44" height="1.9" transform="translate(-142.23 405.18) rotate(-24.41)" fill="#426572"/><rect x="841.8" y="488.3" width="2.85" height="26.99" transform="translate(-132 393.33) rotate(-24.41)" fill="#426572"/><rect x="834.47" y="490.87" width="2.85" height="11.41" transform="translate(-130.5 389.83) rotate(-24.41)" fill="#426572"/><circle cx="857.23" cy="542.28" r="3.99" fill="#fff"/><path d="M856.57,548a5.43,5.43,0,1,1,2.23-.48A5.36,5.36,0,0,1,856.57,548Zm0-8a2.57,2.57,0,1,0,1.06,4.9h0a2.56,2.56,0,0,0-1.07-4.89Z" fill="#426572"/></g></svg>